<svg width="18" height="18" viewBox="0 0 18 18" fill="none" xmlns="http://www.w3.org/2000/svg">
<path d="M15.9536 6.88376C15.7361 6.53876 15.5036 6.21626 15.2636 5.91626C14.9861 5.56376 14.4611 5.53376 14.1461 5.84876L11.8961 8.09873C12.0611 8.59373 12.0911 9.16373 11.9411 9.75623C11.6786 10.8137 10.8236 11.6687 9.76605 11.9312C9.17355 12.0812 8.60355 12.0512 8.10855 11.8862C8.10855 11.8862 7.03606 12.9587 6.26356 13.7312C5.88856 14.1062 6.00856 14.7662 6.51106 14.9612C7.31356 15.2687 8.14605 15.4262 9.00105 15.4262C10.3361 15.4262 11.6336 15.0362 12.8186 14.3087C14.0261 13.5587 15.1136 12.4562 15.9911 11.0537C16.7036 9.92123 16.6661 8.01623 15.9536 6.88376Z" fill="#666666"/>
<path d="M10.5155 7.48547L7.48547 10.5155C7.10297 10.1255 6.85547 9.58545 6.85547 9.00045C6.85547 7.82295 7.81545 6.85547 9.00045 6.85547C9.58545 6.85547 10.1255 7.10297 10.5155 7.48547Z" fill="#666666"/>
<path d="M13.6875 4.31227L11.145 6.85477C10.5975 6.29977 9.84 5.96977 9 5.96977C7.32 5.96977 5.97 7.32726 5.97 8.99977C5.97 9.83977 6.3075 10.5973 6.855 11.1448L4.32 13.6873H4.3125C3.48 13.0123 2.715 12.1498 2.0625 11.1298C1.3125 9.95227 1.3125 8.03977 2.0625 6.86227C2.9325 5.49727 3.9975 4.42477 5.1825 3.68977C6.3675 2.96977 7.665 2.57227 9 2.57227C10.6725 2.57227 12.2925 3.18727 13.6875 4.31227Z" fill="#666666"/>
<path d="M11.1436 8.99859C11.1436 10.1761 10.1836 11.1436 8.99859 11.1436C8.95359 11.1436 8.91609 11.1436 8.87109 11.1286L11.1286 8.87109C11.1436 8.91609 11.1436 8.95359 11.1436 8.99859Z" fill="#666666"/>
<path d="M16.3267 1.67168C16.1017 1.44668 15.7342 1.44668 15.5092 1.67168L1.67168 15.5167C1.44668 15.7417 1.44668 16.1092 1.67168 16.3342C1.78418 16.4392 1.92668 16.4992 2.07668 16.4992C2.22668 16.4992 2.36918 16.4392 2.48168 16.3267L16.3267 2.48168C16.5592 2.25668 16.5592 1.89668 16.3267 1.67168Z" fill="#666666"/>
</svg>
